<svg width="26" height="26" viewBox="0 0 26 26" fill="none" xmlns="http://www.w3.org/2000/svg">
<g clip-path="url(#clip0_53_5436)">
<mask id="mask0_53_5436" style="mask-type:luminance" maskUnits="userSpaceOnUse" x="0" y="0" width="26" height="26">
<path d="M26 0H0V26H26V0Z" fill="white"/>
</mask>
<g mask="url(#mask0_53_5436)">
<path d="M13 26C20.1797 26 26 20.1797 26 13C26 5.8203 20.1797 0 13 0C5.8203 0 0 5.8203 0 13C0 20.1797 5.8203 26 13 26Z" fill="url(#paint0_linear_53_5436)"/>
<path fill-rule="evenodd" clip-rule="evenodd" d="M5.8834 12.8624C9.67316 11.2112 12.2003 10.1227 13.4647 9.59677C17.075 8.09515 17.8252 7.83431 18.3141 7.8257C18.4216 7.8238 18.662 7.85045 18.8178 7.97683C18.9493 8.08355 18.9855 8.22771 19.0029 8.32889C19.0202 8.43007 19.0417 8.66056 19.0246 8.84066C18.829 10.8963 17.9825 15.8847 17.5517 18.187C17.3695 19.1611 17.0107 19.4879 16.6633 19.5198C15.9084 19.5893 15.3351 19.0208 14.604 18.5416C13.4598 17.7916 12.8133 17.3247 11.7028 16.5928C10.4193 15.747 11.2513 15.2822 11.9827 14.5224C12.1742 14.3235 15.5004 11.2981 15.5648 11.0236C15.5729 10.9893 15.5804 10.8613 15.5043 10.7938C15.4283 10.7262 15.3162 10.7493 15.2352 10.7677C15.1204 10.7937 13.2926 12.0018 9.75172 14.3921C9.23289 14.7483 8.76296 14.9219 8.34191 14.9128C7.87775 14.9028 6.98487 14.6504 6.32111 14.4346C5.50699 14.17 4.85994 14.03 4.91628 13.5806C4.94563 13.3465 5.26801 13.1071 5.8834 12.8624Z" fill="white"/>
</g>
</g>
<defs>
<linearGradient id="paint0_linear_53_5436" x1="13" y1="0" x2="13" y2="25.8072" gradientUnits="userSpaceOnUse">
<stop stop-color="#2AABEE"/>
<stop offset="1" stop-color="#229ED9"/>
</linearGradient>
<clipPath id="clip0_53_5436">
<rect width="25.4844" height="25.4844" fill="white" transform="scale(1.02023)"/>
</clipPath>
</defs>
</svg>
